HIERARCHY
ROOT mixamorig:Hips
{
	OFFSET 0.000000 201.639420 0.000000
	CHANNELS 6 Xposition Yposition Zposition Xrotation Yrotation Zrotation
	JOINT mixamorig:Spine
	{
		OFFSET 0.006200 19.524994 -2.481800
		CHANNELS 3 Xrotation Yrotation Zrotation
		JOINT mixamorig:Spine1
		{
			OFFSET -0.000900 22.835007 -2.825400
			CHANNELS 3 Xrotation Yrotation Zrotation
			JOINT mixamorig:Spine2
			{
				OFFSET -0.020600 26.552490 -3.193300
				CHANNELS 3 Xrotation Yrotation Zrotation
				JOINT mixamorig:Neck
				{
					OFFSET -0.060000 30.701813 1.352200
					CHANNELS 3 Xrotation Yrotation Zrotation
					JOINT mixamorig:Head
					{
						OFFSET -0.087200 22.547607 3.670900
						CHANNELS 3 Xrotation Yrotation Zrotation
						JOINT mixamorig:HeadTop_End
						{
							OFFSET -0.830600 40.355194 7.893500
							CHANNELS 3 Xrotation Yrotation Zrotation
							End Site
							{
								OFFSET 0.000000 30.592346 0.000000
							}
						}
						JOINT mixamorig:RightEye
						{
							OFFSET -6.302100 18.118591 16.197100
							CHANNELS 3 Xrotation Yrotation Zrotation
							End Site
							{
								OFFSET 0.000000 30.592346 0.000000
							}
						}
						JOINT mixamorig:LeftEye
						{
							OFFSET 6.741500 18.382690 16.401899
							CHANNELS 3 Xrotation Yrotation Zrotation
							End Site
							{
								OFFSET 0.000000 30.592346 0.000000
							}
						}
					}
				}
				JOINT mixamorig:LeftShoulder
				{
					OFFSET 11.924900 18.230499 1.425400
					CHANNELS 3 Xrotation Yrotation Zrotation
					JOINT mixamorig:LeftArm
					{
						OFFSET 25.435989 -0.697632 -5.229300
						CHANNELS 3 Xrotation Yrotation Zrotation
						JOINT mixamorig:LeftForeArm
						{
							OFFSET 54.684776 0.000000 0.000000
							CHANNELS 3 Xrotation Yrotation Zrotation
							JOINT mixamorig:LeftHand
							{
								OFFSET 55.098175 0.000000 0.000000
								CHANNELS 3 Xrotation Yrotation Zrotation
								JOINT mixamorig:LeftHandMiddle1
								{
									OFFSET 23.369751 0.000000 0.000000
									CHANNELS 3 Xrotation Yrotation Zrotation
									JOINT mixamorig:LeftHandMiddle2
									{
										OFFSET 6.378677 0.000000 0.000000
										CHANNELS 3 Xrotation Yrotation Zrotation
										JOINT mixamorig:LeftHandMiddle3
										{
											OFFSET 6.148331 0.000000 0.000000
											CHANNELS 3 Xrotation Yrotation Zrotation
											JOINT mixamorig:LeftHandMiddle4
											{
												OFFSET 6.582504 0.000000 0.000000
												CHANNELS 3 Xrotation Yrotation Zrotation
												End Site
												{
													OFFSET -1.168900 6.395691 1.028606
												}
											}
										}
									}
								}
								JOINT mixamorig:LeftHandThumb1
								{
									OFFSET 7.235672 -3.848206 5.434273
									CHANNELS 3 Xrotation Yrotation Zrotation
									JOINT mixamorig:LeftHandThumb2
									{
										OFFSET 6.568451 -3.792297 3.792300
										CHANNELS 3 Xrotation Yrotation Zrotation
										JOINT mixamorig:LeftHandThumb3
										{
											OFFSET 6.063080 -3.500519 3.500518
											CHANNELS 3 Xrotation Yrotation Zrotation
											JOINT mixamorig:LeftHandThumb4
											{
												OFFSET 4.793182 -2.767334 2.767349
												CHANNELS 3 Xrotation Yrotation Zrotation
												End Site
												{
													OFFSET 0.101639 6.054260 1.275483
												}
											}
										}
									}
								}
								JOINT mixamorig:LeftHandIndex1
								{
									OFFSET 23.101074 -0.309540 4.992809
									CHANNELS 3 Xrotation Yrotation Zrotation
									JOINT mixamorig:LeftHandIndex2
									{
										OFFSET 6.226883 0.000000 0.000000
										CHANNELS 3 Xrotation Yrotation Zrotation
										JOINT mixamorig:LeftHandIndex3
										{
											OFFSET 6.094330 0.000000 0.000000
											CHANNELS 3 Xrotation Yrotation Zrotation
											JOINT mixamorig:LeftHandIndex4
											{
												OFFSET 5.482605 0.000000 0.000000
												CHANNELS 3 Xrotation Yrotation Zrotation
												End Site
												{
													OFFSET -1.427902 5.233032 0.797164
												}
											}
										}
									}
								}
								JOINT mixamorig:LeftHandRing1
								{
									OFFSET 22.299240 0.021149 -3.964172
									CHANNELS 3 Xrotation Yrotation Zrotation
									JOINT mixamorig:LeftHandRing2
									{
										OFFSET 6.321869 0.000000 0.000000
										CHANNELS 3 Xrotation Yrotation Zrotation
										JOINT mixamorig:LeftHandRing3
										{
											OFFSET 5.899796 0.000000 0.000000
											CHANNELS 3 Xrotation Yrotation Zrotation
											JOINT mixamorig:LeftHandRing4
											{
												OFFSET 6.517899 0.000000 0.000000
												CHANNELS 3 Xrotation Yrotation Zrotation
												End Site
												{
													OFFSET -1.637299 6.232208 0.980890
												}
											}
										}
									}
								}
								JOINT mixamorig:LeftHandPinky1
								{
									OFFSET 20.463791 -0.302338 -8.562233
									CHANNELS 3 Xrotation Yrotation Zrotation
									JOINT mixamorig:LeftHandPinky2
									{
										OFFSET 6.908646 0.000000 0.000000
										CHANNELS 3 Xrotation Yrotation Zrotation
										JOINT mixamorig:LeftHandPinky3
										{
											OFFSET 4.622849 0.000000 0.000000
											CHANNELS 3 Xrotation Yrotation Zrotation
											JOINT mixamorig:LeftHandPinky4
											{
												OFFSET 5.216080 0.000000 0.000000
												CHANNELS 3 Xrotation Yrotation Zrotation
												End Site
												{
													OFFSET -0.606308 5.116241 0.814926
												}
											}
										}
									}
								}
							}
						}
					}
				}
				JOINT mixamorig:RightShoulder
				{
					OFFSET -12.001300 18.284088 1.348900
					CHANNELS 3 Xrotation Yrotation Zrotation
					JOINT mixamorig:RightArm
					{
						OFFSET -25.308500 -0.751312 -5.164599
						CHANNELS 3 Xrotation Yrotation Zrotation
						JOINT mixamorig:RightForeArm
						{
							OFFSET -54.684429 0.000000 0.000000
							CHANNELS 3 Xrotation Yrotation Zrotation
							JOINT mixamorig:RightHand
							{
								OFFSET -55.150291 0.000000 0.000000
								CHANNELS 3 Xrotation Yrotation Zrotation
								JOINT mixamorig:RightHandMiddle1
								{
									OFFSET -23.317566 0.000000 0.000000
									CHANNELS 3 Xrotation Yrotation Zrotation
									JOINT mixamorig:RightHandMiddle2
									{
										OFFSET -6.378403 0.000000 0.000000
										CHANNELS 3 Xrotation Yrotation Zrotation
										JOINT mixamorig:RightHandMiddle3
										{
											OFFSET -6.148193 0.000000 0.000000
											CHANNELS 3 Xrotation Yrotation Zrotation
											JOINT mixamorig:RightHandMiddle4
											{
												OFFSET -6.583389 0.000000 0.000000
												CHANNELS 3 Xrotation Yrotation Zrotation
												End Site
												{
													OFFSET 1.171692 6.395905 1.029786
												}
											}
										}
									}
								}
								JOINT mixamorig:RightHandThumb1
								{
									OFFSET -7.190521 -3.860474 5.435846
									CHANNELS 3 Xrotation Yrotation Zrotation
									JOINT mixamorig:RightHandThumb2
									{
										OFFSET -6.567429 -3.791718 3.791708
										CHANNELS 3 Xrotation Yrotation Zrotation
										JOINT mixamorig:RightHandThumb3
										{
											OFFSET -6.062469 -3.500153 3.500166
											CHANNELS 3 Xrotation Yrotation Zrotation
											JOINT mixamorig:RightHandThumb4
											{
												OFFSET -4.792618 -2.767029 2.767022
												CHANNELS 3 Xrotation Yrotation Zrotation
												End Site
												{
													OFFSET -0.100327 6.053253 1.276754
												}
											}
										}
									}
								}
								JOINT mixamorig:RightHandIndex1
								{
									OFFSET -23.048981 -0.310791 4.992554
									CHANNELS 3 Xrotation Yrotation Zrotation
									JOINT mixamorig:RightHandIndex2
									{
										OFFSET -6.227539 0.000000 0.000000
										CHANNELS 3 Xrotation Yrotation Zrotation
										JOINT mixamorig:RightHandIndex3
										{
											OFFSET -6.095047 0.000000 0.000000
											CHANNELS 3 Xrotation Yrotation Zrotation
											JOINT mixamorig:RightHandIndex4
											{
												OFFSET -5.484772 0.000000 0.000000
												CHANNELS 3 Xrotation Yrotation Zrotation
												End Site
												{
													OFFSET 1.420593 5.237305 0.797056
												}
											}
										}
									}
								}
								JOINT mixamorig:RightHandRing1
								{
									OFFSET -22.246323 0.020569 -3.963762
									CHANNELS 3 Xrotation Yrotation Zrotation
									JOINT mixamorig:RightHandRing2
									{
										OFFSET -6.322128 0.000000 0.000000
										CHANNELS 3 Xrotation Yrotation Zrotation
										JOINT mixamorig:RightHandRing3
										{
											OFFSET -5.900024 0.000000 0.000000
											CHANNELS 3 Xrotation Yrotation Zrotation
											JOINT mixamorig:RightHandRing4
											{
												OFFSET -6.518356 0.000000 0.000000
												CHANNELS 3 Xrotation Yrotation Zrotation
												End Site
												{
													OFFSET 1.636398 6.232697 0.982186
												}
											}
										}
									}
								}
								JOINT mixamorig:RightHandPinky1
								{
									OFFSET -20.411011 -0.303314 -8.561701
									CHANNELS 3 Xrotation Yrotation Zrotation
									JOINT mixamorig:RightHandPinky2
									{
										OFFSET -6.907349 0.000000 0.000000
										CHANNELS 3 Xrotation Yrotation Zrotation
										JOINT mixamorig:RightHandPinky3
										{
											OFFSET -4.623840 0.000000 0.000000
											CHANNELS 3 Xrotation Yrotation Zrotation
											JOINT mixamorig:RightHandPinky4
											{
												OFFSET -5.218353 0.000000 0.000000
												CHANNELS 3 Xrotation Yrotation Zrotation
												End Site
												{
													OFFSET 0.602097 5.118835 0.816273
												}
											}
										}
									}
								}
							}
						}
					}
				}
			}
		}
	}
	JOINT mixamorig:LeftUpLeg
	{
		OFFSET 18.168400 -13.561905 -0.039000
		CHANNELS 3 Xrotation Yrotation Zrotation
		JOINT mixamorig:LeftLeg
		{
			OFFSET 0.577358 -80.825211 -3.695000
			CHANNELS 3 Xrotation Yrotation Zrotation
			JOINT mixamorig:LeftFoot
			{
				OFFSET -0.577356 -83.370262 -6.520700
				CHANNELS 3 Xrotation Yrotation Zrotation
				JOINT mixamorig:LeftToeBase
				{
					OFFSET 0.750401 -20.798306 25.135401
					CHANNELS 3 Xrotation Yrotation Zrotation
					JOINT mixamorig:LeftToe_End
					{
						OFFSET -0.000500 0.001200 19.917799
						CHANNELS 3 Xrotation Yrotation Zrotation
						End Site
						{
							OFFSET 0.000000 19.917805 0.000000
						}
					}
				}
			}
		}
	}
	JOINT mixamorig:RightUpLeg
	{
		OFFSET -18.162500 -13.585098 -0.041000
		CHANNELS 3 Xrotation Yrotation Zrotation
		JOINT mixamorig:RightLeg
		{
			OFFSET -0.595024 -80.945297 -3.631900
			CHANNELS 3 Xrotation Yrotation Zrotation
			JOINT mixamorig:RightFoot
			{
				OFFSET 0.595024 -83.218193 -6.561200
				CHANNELS 3 Xrotation Yrotation Zrotation
				JOINT mixamorig:RightToeBase
				{
					OFFSET -0.753601 -20.807106 25.115000
					CHANNELS 3 Xrotation Yrotation Zrotation
					JOINT mixamorig:RightToe_End
					{
						OFFSET 0.000299 0.001700 19.918200
						CHANNELS 3 Xrotation Yrotation Zrotation
						End Site
						{
							OFFSET 0.000000 19.918203 0.000000
						}
					}
				}
			}
		}
	}
}
MOTION
Frames: 4
Frame Time: 0.033333
10.490564 141.622101 131.491837 -31.018696 17.146234 8.846405 2.823445 -0.164728 0.408548 5.800319 3.261370 -2.395089 5.770324 3.312895 -2.407083 -1.674667 10.639019 -10.170728 -21.805002 55.602108 -11.339154 -0.000000 0.000000 -0.000003 -0.000000 0.000000 -0.000003 -0.000000 0.000000 -0.000003 -0.257572 7.342869 -7.311187 0.253016 -11.492644 -48.987158 0.000016 -44.274372 -0.000002 32.650196 -13.563129 -10.186262 0.029141 0.634130 -5.262231 0.033505 0.679837 -5.642715 0.008330 0.339362 -2.813284 -0.000001 -0.000000 0.000000 -1.567090 2.347804 6.174313 3.889175 7.306062 0.699634 -0.607495 1.254294 2.508492 0.000000 -0.000003 -0.000001 0.029321 0.636048 -5.278200 0.033310 0.677921 -5.626724 0.008331 0.339361 -2.813273 0.000002 0.000002 -0.000005 0.029318 0.636047 -5.278209 0.033320 0.677913 -5.626725 0.008330 0.339363 -2.813283 -0.000000 0.000002 0.000001 0.385190 4.674744 -4.784273 0.021332 -3.376655 -6.135061 0.008330 0.339374 -2.813276 0.000001 -0.000001 0.000002 2.646057 10.433390 9.227988 12.145455 -33.630707 55.254000 -0.000025 59.665828 0.000027 -1.449301 -14.301816 19.207014 0.340791 -2.154093 17.977667 0.340765 -2.154126 17.977666 0.085688 -1.090435 8.985611 0.000000 0.000001 -0.000004 -1.849254 -3.581792 -6.586123 4.645027 -8.656770 -0.231327 -1.269833 0.126084 -2.098668 0.000003 0.000004 -0.000000 0.340784 -2.154088 17.977671 0.340775 -2.154107 17.977664 0.085692 -1.090439 8.985613 -0.000000 0.000000 0.000000 0.340791 -2.154102 17.977659 0.340771 -2.154116 17.977664 0.085692 -1.090433 8.985614 -0.000003 0.000001 -0.000001 0.340782 -2.154099 17.977667 0.340783 -2.154110 17.977666 0.085688 -1.090430 8.985622 -0.000001 -0.000001 0.000001 -1.717394 -10.254574 22.711361 94.992290 11.088973 0.939767 2.179522 0.713842 3.711418 -59.742456 2.568545 -7.940952 0.000001 0.000001 -0.000002 0.033743 -9.330669 -31.768528 99.278459 -0.892887 -0.178978 2.860098 0.288642 -1.181136 -30.951364 -8.025299 23.700912 0.000003 -0.000000 0.000001 
10.572567 134.921936 135.785217 -32.718597 18.656875 9.746606 3.084437 -0.724840 0.491742 6.328277 2.745207 -2.469547 6.297839 2.811668 -2.482455 -1.291253 10.555590 -10.732631 -21.506664 55.096940 -10.956785 -0.000000 0.000000 -0.000003 -0.000000 0.000000 -0.000003 -0.000000 0.000000 -0.000003 -0.257294 7.134691 -6.867254 4.974589 -15.993501 -44.311802 0.000043 -58.555908 0.000035 21.352356 -6.604475 -10.443209 0.025460 0.592950 -4.919540 0.026024 0.599265 -4.972258 0.006468 0.298981 -2.478056 0.000002 0.000000 0.000002 -1.534859 2.919907 5.947605 3.892118 7.339892 0.702363 -0.605867 1.271166 2.510228 0.000000 0.000004 0.000002 0.025628 0.594847 -4.935528 0.025853 0.597361 -4.956266 0.006465 0.298958 -2.478077 -0.000001 -0.000002 0.000000 0.025621 0.594855 -4.935529 0.025862 0.597361 -4.956271 0.006467 0.298953 -2.478073 -0.000001 -0.000002 0.000001 0.357260 4.635610 -4.440237 0.013145 -3.457163 -5.465149 0.006460 0.298970 -2.478062 -0.000003 0.000000 0.000001 2.554483 10.220529 9.288277 12.809734 -37.095365 51.622474 0.000066 73.247283 -0.000041 4.794094 -18.978972 23.704493 0.340778 -2.154098 17.977654 0.340795 -2.154104 17.977632 0.085679 -1.090429 8.985646 0.000001 0.000001 -0.000001 -1.849261 -3.581794 -6.586122 4.645028 -8.656773 -0.231311 -1.269842 0.126077 -2.098662 0.000000 0.000001 -0.000000 0.340776 -2.154097 17.977659 0.340797 -2.154096 17.977638 0.085692 -1.090439 8.985635 0.000003 -0.000000 -0.000001 0.340777 -2.154104 17.977654 0.340796 -2.154094 17.977644 0.085681 -1.090441 8.985632 0.000000 0.000001 0.000000 0.340774 -2.154096 17.977666 0.340800 -2.154100 17.977635 0.085690 -1.090441 8.985636 0.000001 -0.000002 -0.000001 -0.833215 -13.309203 22.953949 99.014882 10.329954 0.841818 4.407916 0.777946 4.860900 -63.492332 5.108879 -11.812081 0.000000 -0.000001 0.000000 -0.893220 -6.735126 -31.346170 104.829224 -0.666232 -0.181724 3.148277 0.280564 -0.965268 -29.552033 -10.209518 26.665292 0.000001 0.000001 -0.000001 
10.807400 127.710266 140.360626 -34.259003 20.194411 10.618993 3.402895 -1.381737 0.691329 6.963483 2.291683 -2.505238 6.931029 2.383446 -2.520128 -0.821221 10.429786 -11.424068 -20.906886 54.230876 -10.526950 -0.000000 0.000000 -0.000003 -0.000000 0.000000 -0.000003 -0.000000 0.000000 -0.000003 -0.254827 6.868239 -6.282030 14.381395 -18.711325 -35.232848 0.000066 -75.903974 0.000052 10.316848 -0.914897 -5.112102 0.020617 0.533525 -4.425641 0.020636 0.533923 -4.428686 0.005130 0.266170 -2.206311 0.000001 -0.000002 -0.000001 -1.521889 3.156942 5.960867 3.895193 7.375253 0.705208 -0.604159 1.288830 2.512027 0.000001 0.000000 -0.000000 0.020753 0.535458 -4.441637 0.020501 0.531996 -4.412697 0.005120 0.266175 -2.206310 -0.000001 -0.000000 0.000001 0.020764 0.535457 -4.441634 0.020491 0.532001 -4.412706 0.005126 0.266176 -2.206310 0.000001 0.000002 -0.000001 0.317432 4.578925 -3.944442 0.007194 -3.522478 -4.922001 0.005124 0.266187 -2.206314 -0.000002 0.000000 -0.000001 2.441484 9.898198 9.319422 13.673844 -42.179871 47.099758 0.000587 87.077166 -0.000543 9.555038 -21.368933 27.802905 0.340786 -2.154098 17.977654 0.340795 -2.154121 17.977632 0.085691 -1.090447 8.985629 -0.000001 0.000000 -0.000001 -1.849253 -3.581789 -6.586138 4.645039 -8.656793 -0.231346 -1.269842 0.126090 -2.098642 -0.000002 -0.000003 0.000001 0.340786 -2.154104 17.977650 0.340785 -2.154093 17.977647 0.085687 -1.090456 8.985610 0.000002 0.000001 0.000001 0.340775 -2.154109 17.977661 0.340801 -2.154116 17.977627 0.085689 -1.090445 8.985623 -0.000002 0.000001 0.000000 0.340785 -2.154104 17.977656 0.340795 -2.154109 17.977645 0.085686 -1.090447 8.985629 -0.000001 -0.000001 0.000001 0.236263 -16.459038 23.408211 102.924052 8.758929 0.685172 6.590851 0.797601 5.863937 -66.793205 8.949729 -16.018166 0.000000 -0.000001 0.000001 -2.497829 -3.758690 -30.898505 109.722659 -0.345285 -0.178208 3.835737 0.269228 -0.678142 -29.269973 -15.471265 33.324503 0.000001 -0.000001 0.000002 
11.009472 120.073914 145.194031 -35.444338 21.537637 11.540999 3.693256 -1.976341 0.837806 7.550130 1.842134 -2.515241 7.518117 1.959914 -2.532778 0.272572 10.132101 -12.124652 -19.832465 53.001401 -10.845926 -0.000000 -0.000000 0.000001 -0.000000 -0.000000 0.000001 -0.000000 -0.000000 0.000001 -0.241975 6.576184 -5.672093 26.174625 -15.238827 -25.115980 -0.001065 -93.095253 -0.000976 3.071056 -0.333816 4.226169 0.017816 0.496068 -4.114318 0.018102 0.499897 -4.146097 0.004497 0.249163 -2.065006 0.000001 -0.000001 0.000000 -1.528319 3.130555 6.042939 3.898407 7.412216 0.708162 -0.602393 1.307272 2.513913 -0.000002 -0.000000 -0.000000 0.017948 0.497992 -4.130311 0.017955 0.497979 -4.130106 0.004491 0.249168 -2.065009 0.000002 0.000001 -0.000001 0.017953 0.497999 -4.130298 0.017949 0.497964 -4.130122 0.004491 0.249160 -2.065015 -0.000004 -0.000000 0.000002 0.292597 4.543003 -3.631953 0.004348 -3.556471 -4.639612 0.004494 0.249171 -2.065007 0.000000 0.000000 0.000000 2.185693 9.465023 9.201466 11.750208 -49.439412 40.081206 0.000522 96.618312 -0.000456 9.969051 -19.944439 30.021953 0.334822 -2.135668 17.818466 0.334921 -2.135946 17.820744 0.084211 -1.081003 8.907251 0.000000 -0.000000 -0.000002 -1.849253 -3.581779 -6.586121 4.645036 -8.656811 -0.231349 -1.269838 0.126085 -2.098657 0.000003 0.000001 0.000001 0.334821 -2.135672 17.818473 0.334925 -2.135930 17.820752 0.084203 -1.081011 8.907236 0.000002 0.000001 -0.000003 0.334823 -2.135675 17.818469 0.334922 -2.135935 17.820761 0.084195 -1.081018 8.907251 -0.000001 0.000001 0.000000 0.334827 -2.135667 17.818468 0.334929 -2.135934 17.820747 0.084195 -1.080997 8.907257 0.000003 0.000001 -0.000000 1.416983 -19.591855 23.943322 106.824295 7.006119 0.515417 8.169110 0.677668 6.250885 -67.964822 13.955285 -20.490047 -0.000000 0.000001 0.000002 -4.011859 -1.005198 -30.494353 113.459073 0.030865 -0.164407 4.784571 0.257123 -0.374422 -33.851193 -25.002515 38.586191 0.000000 -0.000001 0.000001 
